<svg xmlns:osb="http://www.openswatchbook.org/uri/2009/osb" xmlns="http://www.w3.org/2000/svg" xmlns:xlink="http://www.w3.org/1999/xlink" viewBox="0 0 192 192" height="256" width="256" version="1.0"><defs><linearGradient id="a" osb:paint="solid"><stop style="stop-color:#fff;stop-opacity:1" offset="0"/></linearGradient><linearGradient xlink:href="#a" id="b" x1="681.77" y1="754.94" x2="1320.367" y2="754.94" gradientUnits="userSpaceOnUse" gradientTransform="matrix(.107 0 0 .107 -10.513 -10.29)"/></defs><ellipse ry="93.18" rx="94.193" cy="96.492" cx="95.71" style="fill:#ffce00;stroke-width:0.0911331"/><ellipse style="fill:#ffffff;fill-opacity:1;stroke-width:0.06458822" cx="96.95" cy="107.941" rx="45.57" ry="37.975"/><path style="fill:url(#b);fill-opacity:1;stroke:#000e00;stroke-width:0.08025696px;stroke-linecap:butt;stroke-linejoin:miter;stroke-opacity:0" d="m62.49 89.69 5.542-38.31 14.862 25.615 27.886-.68 13.376-21.992 6.575 34.914z"/><path d="M92.43 1.224c-5.286.289-9.042.717-13.322 1.498-27.587 5.05-51.643 22.119-65.64 46.581C6.898 60.775 2.725 73.808 1.43 86.874c-.364 3.692-.428 5.094-.428 9.738 0 5.564.182 8.496.856 13.323 2.429 17.485 9.855 34.232 21.188 47.78 3.477 4.162 8.079 8.763 12.241 12.241 13.548 11.332 30.295 18.759 47.78 21.188 4.826.674 7.758.856 13.323.856 5.564 0 8.496-.182 13.322-.856 29.128-4.056 54.896-21.541 69.6-47.223 6.57-11.472 10.743-24.505 12.038-37.571.364-3.692.428-5.094.428-9.738 0-5.565-.182-8.497-.856-13.323-4.976-35.762-30.038-65.832-64.398-77.26-7.673-2.558-14.843-3.97-23.553-4.666-1.391-.107-9.224-.214-10.54-.14Zm7.92 3.253c13.375.62 25.574 3.788 37.377 9.695 12.756 6.388 23.896 15.709 32.52 27.234 15.174 20.257 21.295 45.671 17.036 70.808-3.638 21.53-15.034 41.252-31.995 55.356-12.403 10.315-27.491 17.271-43.296 19.936-13.034 2.204-26.11 1.658-38.877-1.648-14.082-3.639-27.48-10.84-38.363-20.642-1.69-1.51-4.976-4.784-6.57-6.539C9.038 137.65.723 109.197 5.496 81.01c3.638-21.53 15.035-41.252 31.996-55.356 17.55-14.607 40.182-22.226 62.857-21.177Z" style="stroke-width:0.10700928"/><path d="M92.965 7.056c-16.672.62-32.659 5.832-46.602 15.195-9.481 6.367-17.967 14.853-24.334 24.334-7.876 11.728-12.82 24.88-14.553 38.737-2.387 18.984 1.273 38.02 10.497 54.714 6.763 12.231 16.747 23.125 28.39 30.937 11.728 7.876 24.88 12.82 38.737 14.553 18.984 2.386 38.02-1.273 54.714-10.498 12.231-6.763 23.125-16.747 30.937-28.39 4.975-7.415 8.828-15.473 11.353-23.755 6.699-22.012 4.73-45.822-5.479-66.218-4.408-8.817-9.877-16.404-16.886-23.403-11.503-11.503-25.479-19.486-41.145-23.488-6.335-1.627-12.284-2.472-19.187-2.729-2.996-.107-3.21-.107-6.442.01Zm10.648 1.958c11.364 1.006 21.648 3.852 31.568 8.732 12.295 6.046 23.156 15.035 31.407 26.003 9.267 12.317 15.11 26.72 17.004 41.948.503 4.056.588 5.597.588 10.915 0 5.318-.085 6.86-.588 10.915-2.922 23.542-15.346 44.976-34.34 59.283-12.316 9.267-26.72 15.11-41.947 17.004-4.056.503-5.597.588-10.915.588-5.319 0-6.86-.085-10.915-.588a87.379 87.379 0 0 1-41.68-16.811 88.138 88.138 0 0 1-17.603-17.528c-9.267-12.317-15.11-26.72-17.004-41.948-.503-4.056-.589-5.597-.589-10.915 0-5.318.086-6.86.589-10.915 2.921-23.542 15.345-44.976 34.34-59.283C56.892 16.355 72.761 10.32 89.273 9.024c3.2-.245 3.092-.245 7.918-.213 2.997.021 5.137.096 6.42.203z" style="stroke-width:0.10700928"/><path d="M81.836 33.862c0 .085.054.128.108.096.064-.043.085-.118.053-.171-.096-.15-.16-.118-.16.075zm9.685 3.52c-12.756 1.092-24.291 5.95-34.083 14.35-1.583 1.36-4.569 4.345-5.928 5.929-7.715 8.988-12.488 19.582-14.029 31.086-.642 4.858-.642 10.872 0 15.73 1.541 11.504 6.314 22.098 14.03 31.086 1.358 1.584 4.344 4.57 5.927 5.929 9.845 8.443 21.402 13.29 34.243 14.35 2.397.203 7.02.203 9.417 0 12.841-1.06 24.398-5.907 34.243-14.35 1.584-1.36 4.57-4.345 5.928-5.929 7.716-8.988 12.488-19.582 14.03-31.086.641-4.858.641-10.872 0-15.73-1.542-11.504-6.314-22.098-14.03-31.086-1.359-1.584-4.344-4.57-5.928-5.929-9.845-8.454-21.38-13.28-34.243-14.35-2.29-.192-7.33-.192-9.577 0zm10.433 1.82c12.082 1.24 23.06 5.95 32.157 13.76 1.647 1.424 4.505 4.281 5.928 5.93 6.378 7.426 10.818 16.393 12.798 25.853.867 4.152 1.167 7.255 1.167 11.867 0 3.756-.075 5.008-.535 8.229-1.53 10.819-6.218 21.091-13.43 29.492-1.423 1.648-4.28 4.505-5.928 5.928-7.427 6.378-16.394 10.819-25.854 12.798-1.937.396-4.698.814-6.891 1.038-1.84.182-8.112.182-9.952 0-7.748-.77-14.404-2.675-21.017-6.014-5.596-2.825-10.337-6.26-14.778-10.7-4.44-4.441-7.876-9.182-10.7-14.779-3.34-6.613-5.244-13.269-6.015-21.016-.182-1.84-.182-8.111 0-9.952.77-7.747 2.676-14.403 6.014-21.017 2.825-5.596 6.26-10.337 10.701-14.778 6.271-6.27 13.762-10.947 22.119-13.804 5.062-1.733 9.492-2.59 15.709-3.039 1.273-.096 6.956.043 8.507.203z" style="stroke-width:0.10700928"/><path d="M68.032 51.38c0 .02-.652 3.22-1.455 7.094a5636.787 5636.787 0 0 0-3.06 15.099L61.91 81.62l-1.626 1.637c-9.663 9.749-12.959 22.504-8.946 34.65 3.863 11.728 14.114 21.198 27.876 25.735 7.501 2.483 15.826 3.296 24.023 2.344 14.885-1.723 28.047-9.449 35.003-20.546 6.003-9.588 6.838-20.963 2.28-31.129-1.788-3.991-4.367-7.683-7.705-11.054l-1.627-1.637-1.605-8.047c-1.67-8.304-4.494-22.14-4.548-22.183-.107-.118-9.962 14.221-12.798 18.609-.62.963-.706 1.06-.963 1.006-.15-.033-1.124-.247-2.151-.493-2.055-.481-4.388-.866-6.956-1.155-1.284-.14-2.557-.182-5.618-.182-3.06 0-4.334.043-5.618.182-2.568.289-4.9.674-6.955 1.155a91.8 91.8 0 0 1-2.162.493c-.257.053-.332-.033-.845-.846-2.633-4.12-12.938-19.09-12.938-18.78Zm3.478 10.486c2.675 3.884 6.324 9.374 7.49 11.257.579.942 1.07 1.723 1.082 1.745.01.021.588-.129 1.294-.343 9.792-2.932 20.557-2.932 30.348 0 .706.214 1.284.364 1.295.343.011-.022.503-.803 1.08-1.745 1.692-2.74 9.097-13.74 9.257-13.75.032 0 .193.642.343 1.412.16.781 1.24 6.164 2.407 11.964l2.119 10.54 1.99 1.98c2.162 2.15 3.371 3.606 4.74 5.671 2.537 3.82 4.067 7.609 4.848 11.985.225 1.274.279 2.002.321 4.067.065 2.696-.074 4.42-.502 6.527-3.082 15.142-18.074 27.063-36.758 29.257-12.445 1.466-25.008-1.466-34.564-8.058-2.9-2.001-6.335-5.158-8.336-7.662-2.59-3.253-4.677-7.148-5.779-10.786-1.412-4.645-1.637-9.835-.642-14.532 1.327-6.292 4.59-11.932 9.813-16.961l1.552-1.488.642-3.37c1.06-5.48 4.13-20.546 4.194-20.546.033.01.824 1.123 1.766 2.493z" style="stroke-width:0.10700928"/><path d="M70.012 97.703c-1.648 2.066-3.007 3.8-3.028 3.853-.022.043.984.085 2.247.085h2.28l3.851-3.852 3.853-3.852-3.103.01h-3.104zm47.726.086 3.852 3.852 2.29-.021 2.28-.032-3.06-3.831-3.061-3.82h-6.153zm-33.686 2.665c-.696.406-1.285.76-1.317.791-.032.032 3.06 5.5 6.87 12.167 3.8 6.656 6.956 12.071 6.999 12.018.075-.086 13.804-24.11 13.804-24.163 0-.054-2.675-1.552-2.75-1.552-.054 0-.76 1.199-1.584 2.654l-1.509 2.643-8.015.022-8.025.021-1.499-2.632c-.824-1.456-1.54-2.654-1.605-2.665-.053-.021-.674.3-1.37.696zm18.544 7.918c0 .214-6.024 10.616-6.11 10.53-.064-.064-5.532-9.588-5.992-10.444-.097-.171.224-.182 6.003-.182 3.445 0 6.1.043 6.1.096zm68.326-50.176c-.032.053-.043.107-.011.107.021 0 .128.032.214.064.128.053.16.021.107-.107-.075-.193-.214-.225-.31-.064zm5.693 14.082c-.032.203-.011.257.107.214.085-.032.17-.064.192-.064.022 0 .011-.096-.021-.214-.075-.3-.214-.268-.278.064zm-135.763 57.25c0 .086.053.128.107.096.064-.043.086-.117.053-.17-.096-.15-.16-.119-.16.074zm4.248 4.505c-.139.128-.075.203.418.557l.492.342-.225-.3c-.535-.727-.556-.738-.685-.599z" style="stroke-width:0.10700928"/></svg>