<svg xmlns:osb="http://www.openswatchbook.org/uri/2009/osb" xmlns="http://www.w3.org/2000/svg" xmlns:xlink="http://www.w3.org/1999/xlink" viewBox="0 0 192 192" height="256" width="256" version="1.0"><defs><linearGradient id="a" osb:paint="solid"><stop style="stop-color:#fff;stop-opacity:1" offset="0"/></linearGradient><linearGradient xlink:href="#a" id="b" x1="681.77" y1="754.94" x2="1320.367" y2="754.94" gradientUnits="userSpaceOnUse" gradientTransform="matrix(.1721 0 0 .1721 -75.777 -75.777)"/></defs><ellipse style="opacity:1;fill:#ffce00;fill-opacity:1;stroke:none;stroke-width:0;stroke-miterlimit:4;stroke-dasharray:none;stroke-opacity:1" cx="96.409" cy="96.738" rx="94.366" ry="94.046"/><ellipse style="fill:#ffffff;fill-opacity:1;stroke-width:0.10387822" cx="97.057" cy="114.377" rx="73.29" ry="61.075"/><path style="fill:url(#b);fill-opacity:1;stroke:#000e00;stroke-width:0.12907848px;stroke-linecap:butt;stroke-linejoin:miter;stroke-opacity:0" d="m41.633 85.024 8.915-61.617L74.45 64.605l44.849-1.094 21.513-35.369 10.574 56.153Z"/><path d="M72.749-4.767c0 .138.086.207.172.155.103-.069.138-.189.086-.275-.155-.241-.258-.19-.258.12zM88.324.896C67.81 2.65 49.257 10.465 33.51 23.975c-2.547 2.186-7.349 6.987-9.534 9.534C11.565 47.966 3.89 65.005 1.412 83.506c-1.033 7.813-1.033 17.486 0 25.3 2.478 18.5 10.154 35.539 22.563 49.996 2.185 2.547 6.987 7.349 9.534 9.534 15.834 13.58 34.421 21.376 55.074 23.08 3.855.327 11.29.327 15.145 0 20.652-1.704 39.24-9.5 55.073-23.08 2.548-2.185 7.35-6.987 9.535-9.534 12.409-14.457 20.085-31.495 22.563-49.997 1.033-7.813 1.033-17.486 0-25.3-2.478-18.5-10.154-35.539-22.563-49.996-2.186-2.547-6.987-7.348-9.535-9.534-15.833-13.596-34.386-21.358-55.073-23.08-3.683-.31-11.79-.31-15.404 0zm16.78 2.925c19.431 1.997 37.09 9.57 51.718 22.133 2.65 2.29 7.246 6.884 9.535 9.535 10.257 11.944 17.4 26.366 20.583 41.58 1.395 6.678 1.876 11.669 1.876 19.087 0 6.04-.12 8.054-.86 13.234-2.461 17.4-10 33.922-21.6 47.432-2.288 2.65-6.883 7.246-9.534 9.535-11.944 10.258-26.366 17.4-41.58 20.584-3.115.637-7.556 1.308-11.084 1.67-2.96.292-13.045.292-16.006 0-12.46-1.24-23.165-4.303-33.801-9.673-9.001-4.544-16.625-10.068-23.768-17.21-7.142-7.143-12.667-14.767-17.21-23.768-5.37-10.636-8.433-21.341-9.672-33.802-.293-2.96-.293-13.045 0-16.005 1.239-12.46 4.302-23.166 9.672-33.802 4.543-9 10.068-16.625 17.21-23.767C40.67 20.498 52.716 12.977 66.157 8.382c8.141-2.788 15.266-4.165 25.265-4.888 2.048-.154 11.187.07 13.683.327Z" style="stroke-width:0.17210466"/><path d="M50.548 23.407c0 .034-1.05 5.18-2.341 11.41a9064.956 9064.956 0 0 0-4.922 24.284l-2.582 12.943-2.616 2.633C22.547 90.356 17.245 110.87 23.7 130.404c6.213 18.863 22.7 34.094 44.833 41.392 12.065 3.992 25.455 5.3 38.638 3.769 23.94-2.771 45.109-15.197 56.295-33.044 9.655-15.421 10.998-33.716 3.666-50.066-2.874-6.42-7.022-12.357-12.391-17.778l-2.616-2.633-2.582-12.943c-2.685-13.355-7.228-35.608-7.314-35.677-.172-.19-16.023 22.873-20.584 29.93-.998 1.548-1.136 1.703-1.549 1.617-.24-.052-1.807-.396-3.46-.792-3.304-.774-7.056-1.394-11.186-1.858-2.065-.224-4.113-.293-9.036-.293-4.922 0-6.97.069-9.035.293-4.13.464-7.882 1.084-11.187 1.858-1.652.396-3.218.74-3.476.792-.413.086-.534-.052-1.36-1.36-4.234-6.626-20.807-30.703-20.807-30.204Zm5.593 16.866c4.303 6.248 10.171 15.077 12.047 18.106.93 1.514 1.721 2.77 1.739 2.805.017.034.946-.207 2.082-.55 15.748-4.716 33.061-4.716 48.809 0 1.136.343 2.065.584 2.082.55.018-.035.81-1.29 1.739-2.805 2.719-4.406 14.628-22.099 14.887-22.116.051 0 .31 1.033.55 2.272.259 1.256 1.997 9.913 3.873 19.241l3.407 16.953 3.202 3.183c3.476 3.46 5.42 5.8 7.624 9.122 4.079 6.144 6.54 12.237 7.796 19.276.362 2.048.448 3.218.516 6.54.104 4.337-.12 7.108-.808 10.498-4.957 24.353-29.069 43.525-59.118 47.054-20.016 2.357-40.221-2.358-55.59-12.96-4.664-3.218-10.189-8.295-13.407-12.323-4.165-5.232-7.521-11.496-9.294-17.348-2.272-7.47-2.633-15.816-1.032-23.372 2.134-10.12 7.383-19.19 15.782-27.278l2.495-2.392 1.033-5.422c1.704-8.812 6.643-33.044 6.746-33.044.052.017 1.325 1.807 2.84 4.01z" style="stroke-width:0.17210466"/><path style="fill:#ff0000;fill-opacity:1;stroke:none;stroke-width:0.12907846px;stroke-linecap:butt;stroke-linejoin:miter;stroke-opacity:1" d="m95.963 135.343 14.22-21.148-27.347.729z"/><path d="M54.03 98.209c-2.651 3.322-4.837 6.11-4.871 6.196-.035.069 1.583.137 3.614.137h3.666l6.196-6.195 6.195-6.196-4.99.017h-4.992zm76.758.138 6.196 6.195 3.683-.034 3.666-.052-4.922-6.16-4.923-6.145h-9.896zm-54.178 4.285c-1.12.654-2.066 1.222-2.117 1.274-.052.051 4.922 8.846 11.049 19.568 6.11 10.705 11.187 19.413 11.255 19.327.12-.137 22.202-38.775 22.202-38.86 0-.087-4.303-2.496-4.423-2.496-.086 0-1.222 1.927-2.547 4.268l-2.427 4.25-12.89.035-12.908.035-2.41-4.234c-1.325-2.34-2.478-4.268-2.582-4.286-.086-.034-1.084.482-2.202 1.119zm29.825 12.736c0 .344-9.69 17.073-9.827 16.935-.103-.103-8.898-15.42-9.638-16.797-.155-.276.362-.293 9.655-.293 5.542 0 9.81.069 9.81.155zm109.89-80.7c-.053.086-.07.172-.018.172.034 0 .206.052.344.103.207.086.258.035.172-.172-.12-.31-.344-.361-.499-.103zm9.155 22.649c-.052.327-.017.413.172.344a2.03 2.03 0 0 1 .31-.103c.034 0 .017-.155-.035-.344-.12-.482-.344-.43-.447.103zM7.13 149.393c0 .138.087.206.173.155.103-.07.138-.19.086-.276-.155-.24-.258-.189-.258.12zm6.833 7.246c-.223.206-.12.327.672.894l.791.551-.361-.482c-.86-1.17-.895-1.187-1.102-.963z" style="stroke-width:0.17210466"/></svg>