<svg xmlns="http://www.w3.org/2000/svg" version="1.0" width="256" height="256" viewBox="0 0 192 192" id="svg8"><style type="text/css" id="style2">@media (prefers-color-scheme:light){path{fill:#000}ellipse{fill:#ffce00}}@media (prefers-color-scheme:dark){path{fill:#ffce00}ellipse{fill:#000}}</style><ellipse cx="98.702" cy="93.808" rx="82.825" ry="67.722" id="ellipse4" fill="#ffce00" style="stroke-width:0.22996162"/><path d="M88.65.58C68.644 2.26 51.212 9.18 35.483 21.69c-3.932 3.128-11.13 10.326-14.258 14.258C9.382 50.804 2.691 66.878.414 85.896c-.552 4.668-.552 16.028 0 20.696 2.277 19.018 8.968 35.093 20.811 49.948 3.128 3.932 10.326 11.13 14.258 14.258 14.856 11.843 30.93 18.535 49.948 20.811 2.483.3 5.105.391 10.348.391s7.865-.092 10.348-.39c19.018-2.277 35.092-8.97 49.948-20.812 3.932-3.128 11.13-10.326 14.258-14.258 11.843-14.855 18.534-30.93 20.811-49.948.552-4.668.552-16.028 0-20.696-2.277-19.018-8.968-35.092-20.811-49.948-3.128-3.932-10.326-11.13-14.258-14.257C141.288 9.917 125.03 3.11 106.357.925 102.724.488 92.192.281 88.65.58Zm-2.874 83.062c5.565 17.293 10.187 31.367 10.256 31.275.092-.115 16.718-51.626 19.708-61.055l.552-1.77h16.74l.116.505c.069.3 3.265 20.145 7.129 44.107 3.863 23.962 7.06 43.808 7.128 44.084l.115.529h-16.74l-.139-.644c-.069-.345-2.046-12.533-4.392-27.067-2.346-14.556-4.277-26.514-4.323-26.63-.023-.091-3.979 12.074-8.808 27.021l-8.761 27.205-8.371.069-8.394.046-8.715-27.136c-5.634-17.477-8.808-26.974-8.9-26.721-.138.299-3.863 23.11-3.863 23.594 0 .069 1.656.138 3.68.138h3.679v8.968l-4.416.046-4.415.07-.16.804c-.093.437-.23 1.288-.323 1.886l-.138 1.103h9.452v8.969H62.527l-.644 4.14-.644 4.139h-8.37c-4.6 0-8.371-.07-8.371-.184 0-.092.299-1.955.643-4.14l.644-3.955H30.93v-8.969H47.21l.253-1.448c.138-.805.253-1.679.253-1.955v-.506H30.93v-8.968h18.35l.116-.53c.069-.275 2.207-13.567 4.783-29.55l4.668-29.02 8.394.045 8.416.07z" id="path6" fill="#000" style="stroke-width:0.02299616"/></svg>
