<svg xmlns="http://www.w3.org/2000/svg" version="1.0" width="256" height="256" viewBox="0 0 192 192" id="svg10"><style type="text/css" id="style2">@media (prefers-color-scheme:light){ellipse{fill:#ffce00}path{fill:#000}}@media (prefers-color-scheme:dark){ellipse{fill:#000}path{fill:#ffce00}}</style><ellipse cx="95.062" cy="96.175" rx="94.346" ry="93.663" id="ellipse4" fill="#ffce00" style="stroke-width:0.22582918"/><path d="M88.993.536C65.62 2.387 44.595 12.03 28.223 28.38 14.267 42.337 4.985 60.132 1.62 79.372.491 85.786.265 88.654.265 96.152c0 7.497.226 10.365 1.355 16.779 6.459 36.878 34.484 67.026 70.775 76.127 18.066 4.539 36.923 3.816 54.335-2.1a95.93 95.93 0 0 0 60.07-60.071c8.762-25.767 5.985-54.696-7.475-78.182C162.004 18.512 130.004.06 95.452.31c-2.303.022-5.216.113-6.459.226Zm17.05 3.703c18.406 2.123 35.027 9.169 49.118 20.867 3.365 2.8 8.695 8.107 11.563 11.54 10.794 12.872 17.908 28.341 20.483 44.488.948 5.917 1.129 8.4 1.129 15.018 0 3.59-.113 7.452-.271 8.92-1.333 12.06-4.291 22.267-9.44 32.52-8.965 17.862-23.328 32.225-41.191 41.19-10.253 5.15-20.46 8.108-32.52 9.44-3.387.361-14.453.361-17.84 0-12.06-1.332-22.267-4.29-32.52-9.44-9.01-4.539-16.304-9.778-23.576-16.982-12.24-12.104-20.64-26.851-24.75-43.517-1.875-7.565-2.575-13.663-2.575-22.131 0-6.617.18-9.101 1.129-15.018 2.574-16.147 9.688-31.616 20.482-44.488 2.868-3.433 8.198-8.74 11.563-11.54 10.862-9.01 23.441-15.38 37.036-18.721 5.352-1.31 9.394-1.943 17.05-2.575 2.213-.18 12.263.09 15.13.43Z" id="path6" style="stroke-width:0.22582918"/><path d="M59.658 53.515c-.068.361-2.168 13.279-4.652 28.748-2.484 15.47-4.562 28.251-4.63 28.387-.067.226-2.122.293-9.145.293h-9.034l.046 4.336.067 4.359 8.31.068c5.579.022 8.289.135 8.289.293 0 .113-.113.926-.249 1.784l-.27 1.581-8.04.045-8.04.068-.067 4.336-.046 4.358h7.34c5.826 0 7.34.068 7.34.294 0 .158-.25 1.83-.565 3.726-.316 1.897-.565 3.59-.565 3.772 0 .293 1.107.338 8.13.338h8.13l.09-.496c.068-.294.316-1.852.587-3.456.249-1.626.52-3.206.588-3.545l.135-.633h10.569v-8.807h-4.652c-4.314 0-4.63-.022-4.517-.406.045-.204.158-.836.249-1.4.293-1.965-.136-1.807 4.652-1.807h4.268v-8.807h-7.272l.136-.633c.067-.339.948-5.69 1.942-11.901.993-6.21 1.852-11.382 1.874-11.472.023-.113 3.93 11.833 8.672 26.535l8.604 26.715 8.22.068 8.22.045 8.537-26.467c4.697-14.566 8.604-26.557 8.672-26.648.09-.09 2.077 11.834 4.448 26.49l4.291 26.625h16.418l-.113-.519c-.068-.271-3.252-19.94-7.068-43.698L132.6 52.906l-8.243.045-8.242.067-9.937 30.871c-5.465 16.982-10.004 30.758-10.095 30.6-.112-.203-17.072-52.754-19.308-59.822l-.564-1.762H59.794Z" id="path8" style="stroke-width:0.22582918"/></svg>
