<svg xmlns:osb="http://www.openswatchbook.org/uri/2009/osb" xmlns="http://www.w3.org/2000/svg" xmlns:xlink="http://www.w3.org/1999/xlink" viewBox="0 0 192 192" height="256" width="256" version="1.0"><defs><linearGradient id="a" osb:paint="solid"><stop style="stop-color:#fff;stop-opacity:1" offset="0"/></linearGradient><linearGradient xlink:href="#a" id="b" x1="681.77" y1="754.94" x2="1320.367" y2="754.94" gradientUnits="userSpaceOnUse" gradientTransform="matrix(.1071 0 0 .1071 -10.856 -10.457)"/></defs><ellipse ry="93.256" rx="94.27" cy="96.414" cx="95.454" style="fill:#ffce00;stroke-width:0.09120803"/><ellipse style="fill:#ffffff;fill-opacity:1;stroke-width:0.06464132" cx="96.695" cy="107.872" rx="45.607" ry="38.006"/><path style="fill:url(#b);fill-opacity:1;stroke:#000e00;stroke-width:0.08032294px;stroke-linecap:butt;stroke-linejoin:miter;stroke-opacity:0" d="m62.206 89.607 5.548-38.344L82.627 76.9l27.91-.68 13.386-22.01 6.58 34.943Z"/><path d="M92.172 1.067c-5.29.29-9.05.718-13.334 1.5-27.61 5.054-51.685 22.136-65.693 46.619C6.569 60.666 2.392 73.71 1.096 86.788c-.364 3.694-.428 5.097-.428 9.745 0 5.57.182 8.504.857 13.334 2.43 17.5 9.863 34.26 21.205 47.819 3.48 4.166 8.086 8.771 12.252 12.252C48.54 181.28 65.3 188.712 82.8 191.143c4.83.675 7.764.857 13.333.857 5.57 0 8.504-.182 13.334-.857 29.152-4.059 54.94-21.558 69.656-47.262 6.576-11.48 10.753-24.525 12.048-37.602.365-3.695.429-5.097.429-9.746 0-5.569-.182-8.503-.857-13.333-4.98-35.792-30.062-65.886-64.451-77.324-7.679-2.56-14.855-3.974-23.572-4.67-1.393-.107-9.232-.214-10.55-.139Zm7.925 3.256c13.387.62 25.596 3.791 37.409 9.703 12.766 6.393 23.915 15.722 32.547 27.256 15.186 20.274 21.312 45.71 17.05 70.866-3.642 21.548-15.047 41.286-32.022 55.402-12.413 10.324-27.514 17.285-43.332 19.952-13.044 2.206-26.132 1.66-38.908-1.65-14.094-3.64-27.503-10.848-38.395-20.658-1.692-1.51-4.98-4.788-6.576-6.544C8.71 137.605.39 109.128 5.166 80.919 8.807 59.37 20.213 39.633 37.188 25.517 54.752 10.9 77.403 3.273 100.097 4.323Z" style="stroke-width:0.10709725"/><path d="M92.707 6.904c-16.686.621-32.686 5.837-46.64 15.208-9.49 6.372-17.982 14.865-24.355 24.354-7.882 11.737-12.83 24.9-14.565 38.769-2.388 18.999 1.275 38.051 10.506 54.759 6.769 12.24 16.761 23.143 28.413 30.961 11.738 7.883 24.9 12.83 38.77 14.566 18.999 2.388 38.051-1.275 54.758-10.507 12.242-6.768 23.144-16.76 30.962-28.413 4.98-7.421 8.836-15.486 11.363-23.775 6.704-22.03 4.734-45.86-5.483-66.272-4.413-8.825-9.885-16.418-16.9-23.422-11.513-11.513-25.5-19.502-41.179-23.508-6.34-1.628-12.295-2.474-19.203-2.73-2.998-.108-3.212-.108-6.447.01Zm10.656 1.96c11.374 1.006 21.666 3.855 31.594 8.739 12.306 6.05 23.176 15.047 31.433 26.024 9.275 12.327 15.122 26.743 17.018 41.983.503 4.059.589 5.6.589 10.923s-.086 6.865-.59 10.924c-2.923 23.562-15.357 45.013-34.367 59.332-12.327 9.275-26.742 15.122-41.982 17.018-4.059.503-5.601.59-10.924.59-5.322 0-6.865-.087-10.924-.59a87.45 87.45 0 0 1-41.714-16.825 88.21 88.21 0 0 1-17.618-17.542c-9.274-12.327-15.122-26.743-17.017-41.983-.504-4.059-.59-5.6-.59-10.924 0-5.322.086-6.864.59-10.923 2.923-23.562 15.357-45.013 34.367-59.332C56.605 16.21 72.488 10.17 89.012 8.874c3.203-.246 3.095-.246 7.926-.214 2.998.022 5.14.097 6.425.204z" style="stroke-width:0.10709725"/><path d="M81.57 33.732c0 .085.053.128.106.096.064-.043.086-.118.054-.171-.097-.15-.161-.118-.161.075zm9.691 3.523c-12.766 1.093-24.31 5.955-34.11 14.362-1.585 1.36-4.573 4.348-5.933 5.933-7.722 8.996-12.499 19.599-14.04 31.112-.643 4.862-.643 10.88 0 15.743 1.541 11.513 6.318 22.116 14.04 31.112 1.36 1.585 4.348 4.573 5.933 5.933 9.853 8.45 21.42 13.302 34.271 14.362 2.399.203 7.026.203 9.425 0 12.851-1.06 24.418-5.912 34.27-14.362 1.586-1.36 4.574-4.348 5.934-5.933 7.722-8.996 12.498-19.599 14.04-31.112.643-4.862.643-10.88 0-15.743-1.542-11.513-6.318-22.116-14.04-31.112-1.36-1.585-4.348-4.573-5.933-5.933-9.853-8.46-21.398-13.29-34.271-14.362-2.292-.193-7.337-.193-9.586 0zm10.442 1.82c12.092 1.243 23.08 5.955 32.183 13.774 1.65 1.424 4.509 4.283 5.933 5.933 6.383 7.432 10.828 16.407 12.81 25.874.867 4.156 1.166 7.262 1.166 11.877 0 3.76-.074 5.013-.535 8.236-1.532 10.828-6.222 21.11-13.44 29.516-1.425 1.65-4.285 4.51-5.934 5.933-7.432 6.383-16.407 10.828-25.875 12.81-1.938.396-4.701.813-6.897 1.038-1.842.182-8.118.182-9.96 0-7.754-.771-14.415-2.677-21.034-6.019-5.6-2.827-10.345-6.265-14.79-10.71-4.444-4.444-7.882-9.188-10.71-14.79-3.34-6.618-5.247-13.28-6.018-21.033-.182-1.843-.182-8.118 0-9.96.77-7.754 2.677-14.416 6.019-21.034 2.827-5.602 6.265-10.346 10.71-14.79 6.275-6.276 13.772-10.957 22.136-13.816 5.066-1.735 9.5-2.592 15.722-3.042 1.275-.096 6.961.043 8.514.204z" style="stroke-width:0.10709725"/><path d="M67.754 51.263c0 .022-.654 3.224-1.457 7.101a5641.471 5641.471 0 0 0-3.063 15.111l-1.606 8.054L60 83.168c-9.671 9.756-12.97 22.522-8.954 34.678 3.867 11.738 14.126 21.216 27.9 25.757 7.507 2.484 15.839 3.298 24.042 2.345 14.898-1.724 28.07-9.457 35.032-20.563 6.008-9.595 6.844-20.98 2.281-31.154-1.788-3.995-4.37-7.69-7.71-11.063l-1.629-1.639-1.606-8.054c-1.67-8.31-4.498-22.158-4.552-22.2-.107-.119-9.97 14.232-12.809 18.623-.62.964-.706 1.06-.963 1.007-.15-.032-1.125-.246-2.153-.493-2.056-.481-4.391-.867-6.961-1.156-1.286-.14-2.56-.182-5.623-.182s-4.338.043-5.623.182c-2.57.289-4.905.675-6.961 1.156-1.028.247-2.003.461-2.163.493-.257.054-.332-.032-.846-.846-2.635-4.123-12.948-19.106-12.948-18.796Zm3.48 10.496c2.678 3.888 6.33 9.382 7.497 11.267.578.942 1.071 1.724 1.082 1.745.01.022.589-.128 1.296-.342 9.799-2.935 20.573-2.935 30.372 0 .707.214 1.285.364 1.296.342.011-.021.504-.803 1.082-1.745 1.692-2.742 9.103-13.752 9.264-13.762.032 0 .193.642.343 1.413.16.782 1.242 6.17 2.41 11.974l2.12 10.549 1.992 1.981c2.163 2.153 3.373 3.61 4.744 5.676 2.538 3.824 4.07 7.615 4.852 11.995.225 1.275.278 2.003.32 4.07.065 2.699-.074 4.423-.502 6.533-3.085 15.154-18.09 27.085-36.788 29.28-12.456 1.467-25.029-1.467-34.593-8.064-2.902-2.003-6.34-5.162-8.343-7.668-2.591-3.256-4.68-7.154-5.783-10.796-1.414-4.648-1.638-9.842-.642-14.544 1.328-6.297 4.594-11.94 9.82-16.974l1.553-1.49.643-3.373c1.06-5.483 4.134-20.562 4.198-20.562.032.01.825 1.124 1.767 2.495z" style="stroke-width:0.10709725"/><path style="fill:#ff0000;fill-opacity:1;stroke:none;stroke-width:0.08032294px;stroke-linecap:butt;stroke-linejoin:miter;stroke-opacity:1" d="m96.014 120.919 8.85-13.16-17.018.454z"/><path d="M69.735 97.626c-1.65 2.067-3.01 3.802-3.031 3.855-.021.043.985.086 2.249.086h2.281l3.856-3.855 3.855-3.856-3.106.01h-3.105zm47.765.086 3.856 3.855 2.292-.021 2.28-.033-3.062-3.834-3.063-3.823h-6.158zm-33.714 2.666c-.696.407-1.285.76-1.317.793-.032.032 3.063 5.505 6.875 12.177 3.802 6.661 6.962 12.08 7.004 12.027.075-.086 13.816-24.13 13.816-24.183 0-.053-2.677-1.553-2.752-1.553-.054 0-.76 1.2-1.585 2.656l-1.51 2.646-8.022.021-8.032.021-1.5-2.634c-.824-1.457-1.542-2.656-1.606-2.667-.054-.021-.675.3-1.371.696zm18.56 7.925c0 .215-6.03 10.625-6.115 10.539-.065-.064-5.537-9.596-5.998-10.453-.096-.171.225-.182 6.008-.182 3.449 0 6.105.043 6.105.096zm68.382-50.217c-.033.053-.043.107-.01.107.02 0 .128.032.214.064.128.053.16.021.107-.107-.075-.193-.215-.225-.31-.064zm5.697 14.094c-.032.203-.01.257.107.214.086-.032.172-.064.193-.064.021 0 .01-.097-.021-.215-.075-.3-.215-.267-.279.065zM40.551 129.477c0 .085.053.128.107.096.064-.043.086-.118.053-.171-.096-.15-.16-.118-.16.075zm4.252 4.508c-.14.129-.075.204.417.557l.493.343-.225-.3c-.535-.728-.557-.739-.685-.6z" style="stroke-width:0.10709725"/></svg>