<svg xmlns:osb="http://www.openswatchbook.org/uri/2009/osb" xmlns="http://www.w3.org/2000/svg" xmlns:xlink="http://www.w3.org/1999/xlink" viewBox="0 0 192 192" height="256" width="256" version="1.0"><defs><linearGradient id="a" osb:paint="solid"><stop style="stop-color:#fff;stop-opacity:1" offset="0"/></linearGradient><linearGradient xlink:href="#a" id="b" x1="681.77" y1="754.94" x2="1320.367" y2="754.94" gradientUnits="userSpaceOnUse" gradientTransform="matrix(.17214 0 0 .17214 -75.88 -76.097)"/></defs><ellipse style="opacity:1;fill:#ffce00;fill-opacity:1;stroke:none;stroke-width:0;stroke-miterlimit:4;stroke-dasharray:none;stroke-opacity:1" cx="96.338" cy="96.45" rx="94.384" ry="94.063"/><ellipse style="fill:#ffffff;fill-opacity:1;stroke-width:0.10389761" cx="96.986" cy="114.092" rx="73.304" ry="61.087"/><path style="fill:url(#b);fill-opacity:1;stroke:#000e00;stroke-width:0.12910257px;stroke-linecap:butt;stroke-linejoin:miter;stroke-opacity:0" d="m41.552 84.734 8.916-61.629 23.907 41.206 44.858-1.094 21.517-35.375 10.576 56.163z"/><path d="M72.674-5.073c0 .137.086.206.172.155.103-.07.138-.19.086-.276-.155-.24-.258-.19-.258.12ZM88.252.59c-20.518 1.756-39.075 9.57-54.825 23.083-2.548 2.187-7.35 6.99-9.537 9.537C11.48 47.67 3.802 64.71 1.323 83.216c-1.032 7.815-1.032 17.489 0 25.304 2.48 18.504 10.156 35.546 22.567 50.005 2.187 2.548 6.99 7.35 9.537 9.537 15.836 13.581 34.427 21.38 55.084 23.083 3.855.327 11.292.327 15.148 0 20.656-1.704 39.247-9.502 55.083-23.083 2.548-2.186 7.35-6.989 9.537-9.537 12.41-14.46 20.088-31.5 22.567-50.005 1.033-7.815 1.033-17.49 0-25.304-2.479-18.505-10.156-35.547-22.567-50.006-2.186-2.548-6.989-7.35-9.537-9.537C142.906 10.075 124.35 2.311 103.66.59 99.975.28 91.867.28 88.252.59zm16.784 2.926c19.434 1.997 37.095 9.571 51.727 22.137 2.65 2.29 7.247 6.885 9.536 9.536 10.26 11.947 17.403 26.372 20.588 41.589 1.394 6.679 1.876 11.67 1.876 19.09 0 6.042-.12 8.056-.86 13.237-2.462 17.403-10.002 33.928-21.604 47.44-2.29 2.652-6.885 7.248-9.536 9.537-11.946 10.26-26.372 17.403-41.588 20.588-3.116.637-7.557 1.308-11.086 1.67-2.96.292-13.048.292-16.009 0-12.462-1.24-23.17-4.304-33.807-9.675-9.003-4.544-16.629-10.07-23.772-17.213-7.144-7.144-12.67-14.77-17.214-23.772-5.37-10.638-8.435-21.345-9.674-33.808-.293-2.96-.293-13.048 0-16.009 1.24-12.462 4.303-23.17 9.674-33.807 4.544-9.003 10.07-16.629 17.214-23.773 10.087-10.087 22.136-17.61 35.58-22.205 8.142-2.789 15.269-4.166 25.27-4.889 2.048-.155 11.189.069 13.685.327Z" style="stroke-width:0.17213677"/><path d="M50.468 23.105c0 .035-1.05 5.182-2.34 11.413a9067.566 9067.566 0 0 0-4.924 24.289L40.622 71.75l-2.616 2.634c-15.544 15.682-20.846 36.2-14.391 55.738 6.214 18.866 22.705 34.1 44.842 41.399 12.066 3.993 25.459 5.302 38.644 3.77 23.945-2.772 45.117-15.2 56.306-33.05 9.657-15.424 11-33.722 3.667-50.075-2.875-6.421-7.023-12.36-12.394-17.782l-2.616-2.634-2.583-12.944c-2.685-13.358-7.23-35.616-7.315-35.684-.172-.19-16.026 22.877-20.588 29.934-.998 1.55-1.136 1.704-1.55 1.618-.24-.051-1.807-.396-3.46-.792-3.304-.774-7.057-1.394-11.188-1.859-2.066-.223-4.114-.292-9.037-.292-4.923 0-6.972.069-9.037.292-4.132.465-7.884 1.085-11.19 1.86-1.652.395-3.218.74-3.476.791-.414.086-.534-.051-1.36-1.36-4.235-6.627-20.812-30.709-20.812-30.21Zm5.595 16.87c4.303 6.248 10.173 15.079 12.05 18.109.929 1.514 1.72 2.771 1.738 2.805.017.035.947-.206 2.083-.55 15.75-4.717 33.067-4.717 48.818 0 1.136.344 2.065.585 2.083.55.017-.034.809-1.29 1.738-2.805 2.72-4.407 14.632-22.103 14.89-22.12.052 0 .31 1.033.55 2.272.26 1.257 1.998 9.915 3.874 19.245l3.408 16.956 3.202 3.184c3.477 3.46 5.422 5.801 7.626 9.123 4.08 6.146 6.54 12.24 7.798 19.28.361 2.048.447 3.219.516 6.54.103 4.339-.12 7.11-.81 10.501-4.957 24.358-29.073 43.534-59.128 47.062-20.02 2.359-40.228-2.358-55.6-12.962-4.665-3.218-10.19-8.296-13.41-12.324-4.165-5.233-7.522-11.5-9.295-17.352-2.272-7.47-2.634-15.82-1.033-23.376 2.135-10.122 7.385-19.193 15.785-27.284l2.496-2.392 1.033-5.423c1.704-8.813 6.644-33.05 6.748-33.05.051.017 1.325 1.807 2.84 4.01z" style="stroke-width:0.17213677"/><path d="M53.653 97.623c-2.651 3.323-4.837 6.111-4.872 6.197-.034.07 1.584.138 3.615.138h3.667l6.197-6.197 6.197-6.197-4.992.017h-4.992zm76.773.138 6.197 6.197 3.684-.034 3.666-.052-4.923-6.162-4.923-6.146h-9.898zm-54.189 4.286c-1.119.654-2.065 1.222-2.117 1.274-.052.052 4.923 8.848 11.051 19.572 6.111 10.707 11.19 19.417 11.258 19.331.12-.138 22.206-38.782 22.206-38.868 0-.087-4.304-2.496-4.424-2.496-.086 0-1.223 1.927-2.548 4.269l-2.427 4.251-12.893.035-12.91.034-2.41-4.234c-1.326-2.341-2.48-4.27-2.582-4.287-.086-.034-1.085.482-2.204 1.12zm29.832 12.738c0 .345-9.692 17.076-9.83 16.939-.103-.104-8.899-15.424-9.64-16.8-.154-.276.362-.294 9.658-.294 5.543 0 9.812.07 9.812.155zM215.978 34.07c-.052.087-.069.173-.017.173.034 0 .206.051.344.103.207.086.258.034.172-.172-.12-.31-.344-.362-.5-.104zm9.158 22.654c-.052.327-.018.413.172.344a2.03 2.03 0 0 1 .31-.103c.034 0 .017-.155-.035-.345-.12-.482-.344-.43-.447.104zM6.746 148.817c0 .138.086.206.172.155.103-.07.137-.19.086-.276-.155-.24-.258-.189-.258.12zm6.833 7.247c-.223.206-.12.327.672.895l.792.55-.362-.481c-.86-1.17-.895-1.188-1.102-.964z" style="stroke-width:0.17213677"/></svg>