<svg xmlns:osb="http://www.openswatchbook.org/uri/2009/osb" xmlns="http://www.w3.org/2000/svg" version="1.0" width="256" height="256" viewBox="0 0 192 192" ><defs id="defs8"><linearGradient id="linearGradient819" osb:paint="solid"><stop stop-color="#000" style="stop-opacity:1" offset="0" id="stop817"/></linearGradient></defs><style type="text/css" id="style2">@media (prefers-color-scheme:light){g{fill:#000}#outline{fill:#000;}#inner{fill:#000;stroke:#ffce00;}}@media (prefers-color-scheme:dark){g{fill:#ffce00}#outline{fill:#ffce00;}#inner{fill:#fff;stroke:#ffce00;}}</style><g id="outline" transform="matrix(.02197 0 0 -.02197 -14.189 206.406)" fill="#000" stroke="#fff" style="stroke-width:179.99969512;stroke-miterlimit:4;stroke-dasharray:none;stroke-opacity:1;stroke-linejoin:miter;stroke-linecap:square;fill-opacity:1"><path d="m2460 6090-345-2140H780v-650h1232l-5-22c-3-13-14-76-23-140l-18-118H780v-650h1080l-6-38c-3-20-25-154-48-297l-42-260 600-3c329-1 601 0 604 3 2 2 24 127 48 277s46 283 49 296l5 22h790v650l-343 2-343 3 18 115c10 63 20 125 23 138l5 22h640v650l-268 2-268 3 141 877c78 483 143 880 146 883 3 2 291-883 640-1968l635-1972 605-3 605-2 633 1967c348 1083 636 1971 640 1975s132-770 285-1720 297-1838 319-1974l40-248h1209l-6 27c-3 16-233 1441-511 3168s-510 3168-516 3203l-11 62-606-2-606-3-735-2283c-404-1255-738-2279-742-2275-4 5-337 1033-740 2286l-733 2277H2805Z" id="inner" fill="#000" stroke="#fff" style="stroke-width:179.99969512;stroke-miterlimit:4;stroke-dasharray:none;stroke-opacity:1;stroke-linejoin:miter;stroke-linecap:square;fill-opacity:1;"/></g></svg>
