<svg xmlns="http://www.w3.org/2000/svg" version="1.0" width="256" height="256" viewBox="0 0 192 192" id="svg938"><style type="text/css" id="style934">@media (prefers-color-scheme:light){#mark,#outline{fill:#000}#face-color,#ear-color{fill:#ffce00;}}@media (prefers-color-scheme:dark){#mark,#outline{fill:#ffce00}#face,#ear{fill:#000;}}</style><g id="face-color" style="display:inline" transform="matrix(.16119 0 0 .16119 1.88 .935)"><ellipse fill="#ffce00" stroke="#ffce00" style="opacity:1;fill-opacity:1;stroke-width:0;stroke-miterlimit:4;stroke-dasharray:none;stroke-opacity:1" id="face" ry="459.338" rx="560.22" cy="705.463" cx="577.392"/><path fill="#d45500" stroke="#ffce00" style="opacity:0.84600004;fill-opacity:1;stroke-width:0.75000024;stroke-opacity:1" id="path2381" d="M997.378 543.764a464.346 289.054 0 0 1-.007 1.55"/><path fill="#d45572" stroke="#ffce00" style="opacity:0.84600004;fill-opacity:1;stroke-width:0;stroke-miterlimit:4;stroke-dasharray:none;stroke-opacity:1" id="path2385" d="M1329.36 618.89a603.15 347.008 0 0 1-.01 1.859"/></g><g id="ear-color" style="display:inline" transform="matrix(.16119 0 0 .16119 1.88 .935)"><path fill="#ffce00" style="fill-opacity:1;stroke:none;stroke-width:0.75000024px;stroke-linecap:butt;stroke-linejoin:miter;stroke-opacity:1" d="M176.008 380.635 238.97 48.653l153.113 228.953 392.082-4.293L925.83 57.238l67.255 336.276Z" id="ear"/></g><path id="outline" d="M38.716.968c0 .048-.58 2.95-1.305 6.447a8892.056 8892.056 0 0 0-7.963 39.347l-2.966 14.797-2.982 3.095c-4.61 4.803-6.867 7.543-9.639 11.638-11.59 17.134-14.878 36.638-9.397 55.723 2.724 9.51 7.285 17.988 14.168 26.322 2.031 2.466 7.48 7.898 10.09 10.074 19.021 15.83 44.698 24.195 71.279 23.195 3.884-.129 6.64-.338 9.8-.725 30.271-3.61 56.948-19.6 70.633-42.344 14.475-24.082 12.621-53.29-4.82-75.824-2.111-2.724-3.707-4.545-7.076-8.06l-2.982-3.094-2.482-12.38c-4.949-24.677-9.704-47.937-9.849-48.066-.096-.113-.193 0-2.192 2.805-4.513 6.334-14.233 20.503-20.568 29.997-2.305 3.466-4.32 6.35-4.448 6.4-.146.064-1.838-.259-3.772-.71-5.997-1.386-12.364-2.386-17.2-2.708-3.126-.226-14.958-.226-17.972-.016-5.384.387-11.315 1.354-18.36 2.982-1.37.322-2.578.548-2.691.5-.097-.033-2.208-3.111-4.69-6.819-6.48-9.72-14.766-21.776-19.57-28.498-2.82-3.95-3.03-4.24-3.046-4.078Zm6.013 19.568c5.142 7.431 13.733 20.358 16.554 24.888.919 1.467 1.66 2.676 1.676 2.676 0 .016.887-.21 1.95-.516 7.706-2.16 12.718-3.176 19.343-3.917 13.895-1.548 27.467-.403 41.426 3.514l3.385.95.645-1.047c3.917-6.335 17.537-26.757 19.633-29.433.386-.5.515-.58.612-.387.08.13 2.289 10.929 4.916 23.985l4.772 23.76 3.9 3.949c4.997 5.06 6.69 7.076 9.591 11.412 5.593 8.365 9.252 18.101 10.187 27.112.307 2.933.258 11.412-.08 13.943-1.854 14.2-8.608 27.16-19.859 38.12-13.33 12.977-31.609 21.649-51.806 24.566-5.142.758-7.576.935-13.798 1.016-6.318.096-9.252-.033-14.168-.613-15.442-1.79-30.191-6.98-42.393-14.894-7.495-4.868-15.265-12.057-20.181-18.682-6.98-9.413-11.058-19.536-12.331-30.642-.274-2.37-.274-9.945 0-12.411 1.225-10.961 5.384-21.293 12.347-30.53 2.289-3.046 4.675-5.722 8.124-9.139l3.272-3.24.887-4.578c1.724-8.962 7.656-38.25 8.543-42.199.322-1.435.129-1.612 2.853 2.337z" style="stroke-width:0.16118926"/><path id="mark" d="M59.123 83.674c-1.5 9.317-3.514 21.809-4.481 27.757-.951 5.932-1.74 10.896-1.74 10.993 0 .161-1.92.21-8.737.242l-8.753.048-.048 4.143-.033 4.158h16.152l-.081.516c-.064.29-.193 1.129-.29 1.854l-.194 1.338-7.753.032-7.753.048-.048 4.143-.033 4.159h6.883c3.804 0 6.98.064 7.093.129.145.096.048 1.031-.42 3.9l-.596 3.788 7.802.049c4.303.016 7.833.016 7.866-.017.016-.016.306-1.708.644-3.74.323-2.046.661-3.803.742-3.916.129-.145 1.37-.193 5.222-.193h5.062v-8.382h-4.53c-4.223 0-4.513-.016-4.432-.29.048-.145.16-.855.258-1.564.096-.71.21-1.418.257-1.58.081-.257.42-.274 4.272-.274h4.175v-8.381h-7.093l.081-.371c.048-.194.403-2.386.806-4.868 2.45-15.232 2.901-17.973 2.982-17.973.064 0 .226.387.355.839.129.467 2.063 6.48 4.271 13.346 2.225 6.867 5.835 18.102 8.043 24.936l3.998 12.46h15.813l3.014-9.397c2.643-8.27 10.38-32.351 12.718-39.572.467-1.435.902-2.563.967-2.499.048.08.225.887.354 1.822.146.935 1.467 9.123 2.934 18.214a16794.96 16794.96 0 0 1 3.788 23.534c.629 3.852 1.177 7.205 1.225 7.447l.097.45h7.801c6.674 0 7.802-.031 7.802-.225 0-.225-1.193-7.64-7.076-44.182l-4.514-28.047c-.983-6.125-1.821-11.283-1.87-11.492l-.08-.355h-15.78l-.565 1.725c-.29.967-2.562 7.979-5.013 15.603-2.45 7.624-6.173 19.15-8.252 25.629-5.11 15.91-5.384 16.731-5.53 16.586-.064-.08-.676-1.853-1.337-3.933-.66-2.08-3.256-10.139-5.755-17.892C81.9 79.854 77.724 66.846 77.724 66.765c0-.032-3.578-.064-7.93-.064h-7.947z" style="stroke-width:0.16118926"/></svg>
