<svg xmlns="http://www.w3.org/2000/svg" version="1.0" width="256" height="256" viewBox="0 0 192 192" id="svg10"><style type="text/css" id="style2">@media (prefers-color-scheme:light){g{fill:#000}}@media (prefers-color-scheme:dark){g{fill:#fff}}</style><g id="g8" fill="#000" style="stroke:none" transform="matrix(.16187 0 0 .16187 1.5 .448)"><path d="M228.527.205c0 .3-3.6 18.3-8.1 40-19.1 93.5-32.2 158.1-49.4 244.1l-18.4 91.8-18.5 19.2c-28.6 29.8-42.6 46.8-59.8 72.2-71.9 106.3-92.3 227.3-58.3 345.7 16.9 59 45.2 111.6 87.9 163.3 12.6 15.3 46.4 49 62.6 62.5 118 98.2 277.3 150.1 442.2 143.9 24.1-.8 41.2-2.1 60.8-4.5 187.8-22.4 353.3-121.6 438.2-262.7 89.8-149.4 78.3-330.6-29.9-470.4-13.1-16.9-23-28.2-43.9-50l-18.5-19.2-15.4-76.8c-30.7-153.1-60.2-297.4-61.1-298.2-.6-.7-1.2 0-13.6 17.4-28 39.3-88.3 127.2-127.6 186.1-14.3 21.5-26.8 39.4-27.6 39.7-.9.4-11.4-1.6-23.4-4.4-37.2-8.6-76.7-14.8-106.7-16.8-19.4-1.4-92.8-1.4-111.5-.1-33.4 2.4-70.2 8.4-113.9 18.5-8.5 2-16 3.4-16.7 3.1-.6-.2-13.7-19.3-29.1-42.3-40.2-60.3-91.6-135.1-121.4-176.8-17.5-24.5-18.8-26.3-18.9-25.3zm28.1 108.5c24.5 34.5 90.5 133.2 110.9 165.8 6.1 9.9 11.3 18.1 11.4 18.2.1.2 8.9-2.2 19.5-5.2 85.2-24.1 167.3-31.6 252.6-23 41.3 4.2 79.2 11.6 121.9 23.9 8.8 2.5 16.2 4.2 16.5 3.8.4-.5 5.8-9.2 12.1-19.3 18.9-30.4 97.7-148 112.4-167.9l4-5.5 1.3 4.5c.7 2.5 14.4 69.6 30.3 149l29.1 144.5 22.7 23c31.7 32 42 44.1 58.8 69 36.7 54.5 59.6 115 65.4 173 1.8 17.8 1.6 67.6-.4 83.5-13.2 107.7-74.8 207.3-174 281.2-73.6 55-166.9 93.1-264.6 108.2-32.4 5-53.4 6.7-90.1 7.3-47.7.8-81-1.6-123.3-8.7-93.9-15.9-184.1-53.1-253.1-104.4-25.3-18.9-57.6-48-76.4-68.9-38.6-42.9-68.8-94.8-86-148.1-20.4-63-22.5-135.9-5.6-200.8 7.4-28.8 15.8-50.8 29.6-77.8 21.4-42 43.6-71.6 84.9-113.5l23.6-24 1.8-10c7.1-39.8 57.2-286.5 58.2-286.5.2 0 3.1 3.9 6.5 8.7z" id="path4"/><path d="M261.027 567.705c-37.8 47.4-44.5 56.1-44.5 57.3 0 .6 10 1 27.8 1h27.7l48-48 48-48h-77zm587 10.3 48 48h28.2c15.6 0 28.3-.2 28.3-.5s-17.1-21.9-38-48l-38-47.5h-76.5zm-415.5 31.3c-14.8 8.1-20 11.5-20 12.7 0 3.6 170 300 172 300 .3 0 18.3-30.9 40-68.8 94.5-165 132.1-231.5 131.3-232.2-1.6-1.6-31.7-18-33-18-1.3 0-6.8 9.1-26.2 43.1l-12.3 21.6-54.7.6c-30 .4-75.1.7-100.1.7h-45.5l-15.2-26.8c-16.1-28.3-22.8-39.2-24-39.2-.5 0-6 2.8-12.3 6.3zm218.8 100.5 8.3.7-11.9 21c-23.9 42.5-60.9 105.5-63.6 108.2-1.3 1.4-.7 2.5-46.7-77.8-15.3-26.7-28.1-49.3-28.5-50.2-.4-1.2.2-1.7 2.8-2 5.5-.7 130.7-.5 139.6.1z" id="path6"/></g></svg>
