<svg xmlns="http://www.w3.org/2000/svg" version="1.0" width="256" height="256" viewBox="0 0 192 192" id="svg10"><style type="text/css" id="style2">@media (prefers-color-scheme:light){g{fill:#000}#face,#ear{fill:#fff}}@media (prefers-color-scheme:dark){g{fill:#fff}#face,#ear{fill:#000}}</style><g id="face-layer" transform="translate(.603 .649) scale(.16143)"><ellipse id="face" cx="586.687" cy="703.136" rx="561.615" ry="464.825" fill="#fff" style="stroke:none"/></g><g id="ear-layer" transform="translate(.603 .649) scale(.16143)"><path d="M181.773 377.335 246.96 43.876l159.208 235.678h382.35L928.92 56.412l80.23 344.742z" id="ear" fill="#fff" style="stroke:none"/></g><g id="mouth" transform="translate(.603 .649) scale(.16143)"><path fill="#f70000" style="fill-opacity:1;stroke:none;stroke-width:0.7500003px;stroke-linecap:butt;stroke-linejoin:miter;stroke-opacity:1" d="m478.674 692.32 214.516.886-101.053 177.286Z" id="path826"/></g><g id="g8" fill="#000" style="stroke:none" transform="translate(.603 .649) scale(.16143)"><path d="M236.027.205c0 .3-3.6 18.3-8.1 40-19.1 93.5-32.2 158.1-49.4 244.1l-18.4 91.8-18.5 19.2c-28.6 29.8-42.6 46.8-59.8 72.2-71.9 106.3-92.3 227.3-58.3 345.7 16.9 59 45.2 111.6 87.9 163.3 12.6 15.3 46.4 49 62.6 62.5 118 98.2 277.3 150.1 442.2 143.9 24.1-.8 41.2-2.1 60.8-4.5 187.8-22.4 353.3-121.6 438.2-262.7 89.8-149.4 78.3-330.6-29.9-470.4-13.1-16.9-23-28.2-43.9-50l-18.5-19.2-15.4-76.8c-30.7-153.1-60.2-297.4-61.1-298.2-.6-.7-1.2 0-13.6 17.4-28 39.3-88.3 127.2-127.6 186.1-14.3 21.5-26.8 39.4-27.6 39.7-.9.4-11.4-1.6-23.4-4.4-37.2-8.6-76.7-14.8-106.7-16.8-19.4-1.4-92.8-1.4-111.5-.1-33.4 2.4-70.2 8.4-113.9 18.5-8.5 2-16 3.4-16.7 3.1-.6-.2-13.7-19.3-29.1-42.3-40.2-60.3-91.6-135.1-121.4-176.8-17.5-24.5-18.8-26.3-18.9-25.3zm29.2 109.6c24.4 34.3 89.9 132.4 110.2 164.9 6.4 10.3 11.4 17.3 12.3 17.3.9 0 8.6-2 17.2-4.4 64.8-18.5 121.8-26.6 186.8-26.6 65.1 0 123.9 8.5 188.5 27.1 7.5 2.1 14.3 3.9 15.1 3.9.9 0 6.2-7.5 12.3-17.3 26.2-42 115.4-174.6 117.6-174.7.4 0 1.2 1.7 1.8 3.7.5 2.1 14.1 69 30.2 148.8l29.1 145 24.7 25c32 32.5 43.5 46.3 61.3 73.6 30.4 46.7 49.7 95.3 58.7 148.4 3.6 20.8 5 63.5 3 89.6-5.5 70.1-34.6 142.1-82.3 203.1-18.2 23.4-46.9 52.9-69.7 71.9-127.3 106-304.5 152.7-484.5 127.8-35.8-4.9-81.7-15.8-115.5-27.5-89.7-30.7-159.1-74.2-222.1-139.1-28.4-29.3-50.4-60.1-70-97.8-21.9-42.1-34-81.6-40.1-130.5-1.8-14.2-1.7-65.9 0-80.5 9.6-78.2 40.9-147.5 95.7-211.5 5.5-6.3 19.3-20.8 30.7-32.1l20.8-20.6 6-31.4c12-62.2 47-234.7 52.2-257.2 1.1-4.8 2.4-8.5 2.9-8.2.5.4 3.7 4.5 7.1 9.3z" id="path4"/><path d="M282.327 550.705c-35.8 45-53.9 68-56 70.9l-2.3 3.2 3.1.6c1.8.3 14.2.6 27.8.6h24.6l47.5-47.5 47.5-47.5h-76.5zm573.7 27.8 47.5 47.5 23.5-.1c12.9 0 25.5-.4 27.9-.7l4.3-.7-37.3-46.7-37.4-46.8h-76zm-410.6 28.2c-16.7 8.7-25.5 14.5-24.9 16.1 3.3 8.7 166.9 294 170.8 297.9 1.2 1.2 12.3-17.8 127.9-220.6l44.7-78.5-3.2-1.9c-7.5-4.6-29.6-16.7-30.4-16.7-1 0-5.8 7.9-25.6 42.5l-13.2 23-100.1.3-100.2.2-9.7-17.2c-12.9-23-27.5-47.7-28.5-48.3-.4-.3-3.8 1.2-7.6 3.2zm221.1 103.5c.9.9-25.3 47.5-56.3 99.8-16.6 28-18.4 31-19.4 31s-74.8-128.1-74.8-130c0-.5.8-1.1 1.8-1.3 2.7-.8 147.9-.3 148.7.5z" id="path6"/></g></svg>
