<svg xmlns="http://www.w3.org/2000/svg" version="1.0" width="256" height="256" viewBox="0 0 192 192" id="svg8"><style type="text/css" id="style2">@media (prefers-color-scheme:light){#outline{fill:#000}#ear,ellipse{fill:#fff}}@media (prefers-color-scheme:dark){#outline{fill:#fff}#ear,ellipse{fill:#000}}</style><ellipse cx="95.02" cy="114.727" rx="91.869" ry="74.125" id="ellipse4" fill="#fff" style="stroke:none;stroke-width:0.16143101"/><path id="ear" d="M29.195 66.933 40.643 9.407 65.542 46.9h60.387l24.899-36.06 12.306 54.09z" fill="#fff" style="stroke:none;stroke-width:0.16143101"/><path id="outline" d="M38.391.995c0 .049-.58 2.954-1.307 6.457a8905.174 8905.174 0 0 0-7.975 39.406l-2.97 14.82-2.987 3.099c-4.617 4.81-6.877 7.555-9.653 11.655-11.607 17.16-14.9 36.693-9.412 55.807 2.728 9.524 7.297 18.015 14.19 26.361 2.034 2.47 7.49 7.91 10.106 10.09 19.048 15.852 44.764 24.23 71.384 23.23 3.89-.13 6.651-.34 9.815-.727 30.317-3.616 57.034-19.63 70.74-42.408 14.496-24.117 12.64-53.369-4.827-75.937-2.115-2.728-3.713-4.552-7.087-8.071l-2.987-3.1-2.486-12.398c-4.956-24.715-9.718-48.01-9.863-48.138-.097-.113-.194 0-2.196 2.808-4.52 6.345-14.254 20.534-20.598 30.043-2.309 3.47-4.327 6.36-4.456 6.409-.145.064-1.84-.259-3.777-.71-6.005-1.389-12.382-2.39-17.225-2.713-3.132-.226-14.98-.226-18-.016-5.391.388-11.332 1.356-18.386 2.987-1.373.322-2.583.548-2.696.5-.097-.032-2.212-3.116-4.698-6.829-6.49-9.734-14.787-21.809-19.598-28.54-2.825-3.956-3.035-4.246-3.05-4.085Zm4.714 17.693c3.939 5.537 14.513 21.374 17.79 26.62 1.033 1.663 1.84 2.793 1.985 2.793.146 0 1.389-.323 2.777-.71 10.46-2.987 19.662-4.295 30.155-4.295 10.51 0 20.002 1.373 30.43 4.375 1.21.34 2.308.63 2.438.63.145 0 1-1.21 1.985-2.793 4.23-6.78 18.63-28.186 18.985-28.202.064 0 .193.274.29.597.08.34 2.276 11.14 4.875 24.021l4.698 23.408 3.987 4.036c5.166 5.246 7.023 7.474 9.896 11.88 4.908 7.54 8.023 15.385 9.476 23.957.581 3.358.807 10.251.484 14.464-.888 11.317-5.585 22.94-13.285 32.787-2.939 3.778-7.572 8.54-11.252 11.607-20.55 17.112-49.156 24.65-78.214 20.63-5.779-.79-13.188-2.55-18.645-4.438-14.48-4.956-25.684-11.979-35.854-22.456-4.584-4.73-8.136-9.702-11.3-15.787-3.535-6.797-5.488-13.173-6.473-21.067-.29-2.293-.275-10.639 0-12.995 1.55-12.624 6.602-23.811 15.449-34.143.888-1.017 3.115-3.358 4.956-5.182l3.357-3.325.969-5.07c1.937-10.04 7.587-37.887 8.427-41.52.177-.774.387-1.372.468-1.323.08.064.597.726 1.146 1.501z" fill="#000" style="stroke:none;stroke-width:0.01614311"/></svg>
