<svg xmlns="http://www.w3.org/2000/svg" version="1.0" width="256" height="256" viewBox="0 0 192 192" id="svg10"><style type="text/css" id="style2">@media (prefers-color-scheme:light){g{fill:#000}#face,#ear{fill:#fff}}@media (prefers-color-scheme:dark){g,path{fill:#fff}#face,#ear{fill:#000}}</style><ellipse id="face" cx="96.075" cy="113.314" rx="91.666" ry="73.008" fill="#fff" style="stroke-width:0.16177371"/><path id="ear" d="M29.557 63.425 39.9 8.465l25.755 38.127 62.26-.405 22.916-35.693 11.357 54.147Z" fill="#fff" style="stroke-width:0.16177371"/><g id="g8" fill="#000" style="stroke:none" transform="matrix(.16177 0 0 .16177 .354 .557)"><path d="M236.027.205c0 .3-3.6 18.3-8.1 40-19.1 93.5-32.2 158.1-49.4 244.1l-18.4 91.8-18.5 19.2c-28.6 29.8-42.6 46.8-59.8 72.2-71.9 106.3-92.3 227.3-58.3 345.7 16.9 59 45.2 111.6 87.9 163.3 12.6 15.3 46.4 49 62.6 62.5 118 98.2 277.3 150.1 442.2 143.9 24.1-.8 41.2-2.1 60.8-4.5 187.8-22.4 353.3-121.6 438.2-262.7 89.8-149.4 78.3-330.6-29.9-470.4-13.1-16.9-23-28.2-43.9-50l-18.5-19.2-15.4-76.8c-30.7-153.1-60.2-297.4-61.1-298.2-.6-.7-1.2 0-13.6 17.4-28 39.3-88.3 127.2-127.6 186.1-14.3 21.5-26.8 39.4-27.6 39.7-.9.4-11.4-1.6-23.4-4.4-37.2-8.6-76.7-14.8-106.7-16.8-19.4-1.4-92.8-1.4-111.5-.1-33.4 2.4-70.2 8.4-113.9 18.5-8.5 2-16 3.4-16.7 3.1-.6-.2-13.7-19.3-29.1-42.3-40.2-60.3-91.6-135.1-121.4-176.8-17.5-24.5-18.8-26.3-18.9-25.3zm29.2 109.6c24.4 34.3 89.9 132.4 110.2 164.9 6.4 10.3 11.4 17.3 12.3 17.3.9 0 8.6-2 17.2-4.4 64.8-18.5 121.8-26.6 186.8-26.6 65.1 0 123.9 8.5 188.5 27.1 7.5 2.1 14.3 3.9 15.1 3.9.9 0 6.2-7.5 12.3-17.3 26.2-42 115.4-174.6 117.6-174.7.4 0 1.2 1.7 1.8 3.7.5 2.1 14.1 69 30.2 148.8l29.1 145 24.7 25c32 32.5 43.5 46.3 61.3 73.6 30.4 46.7 49.7 95.3 58.7 148.4 3.6 20.8 5 63.5 3 89.6-5.5 70.1-34.6 142.1-82.3 203.1-18.2 23.4-46.9 52.9-69.7 71.9-127.3 106-304.5 152.7-484.5 127.8-35.8-4.9-81.7-15.8-115.5-27.5-89.7-30.7-159.1-74.2-222.1-139.1-28.4-29.3-50.4-60.1-70-97.8-21.9-42.1-34-81.6-40.1-130.5-1.8-14.2-1.7-65.9 0-80.5 9.6-78.2 40.9-147.5 95.7-211.5 5.5-6.3 19.3-20.8 30.7-32.1l20.8-20.6 6-31.4c12-62.2 47-234.7 52.2-257.2 1.1-4.8 2.4-8.5 2.9-8.2.5.4 3.7 4.5 7.1 9.3z" id="path5"/><path id="mark" d="M379.527 410.205c-.2 1.3-1.3 7.9-2.4 14.8-1.9 11.6-4.2 25.9-10.5 65-1.4 8.5-7.5 46.5-13.6 84.5-6.2 37.9-12 74.4-13.1 81-1.1 6.6-2.8 17.4-3.8 24-1.1 6.6-4.2 26.1-7 43.3-2.8 17.2-5.1 31.5-5.1 31.7 0 .3-24.3.5-54 .5h-54v52h99.3l-.7 5.2c-.4 2.9-1.2 8.1-1.7 11.5l-1.1 6.3h-95.8v52h43.5c34.1 0 43.5.3 43.5 1.2 0 .7-1.6 11-3.5 22.8s-3.5 22.3-3.5 23.2c0 1.7 3 1.8 48.3 1.8h48.3l3.9-24.3 4-24.2 32.3-.3 32.2-.2-.2-25.8-.3-25.7-27.7-.3-27.8-.2.6-4.3c.3-2.3 1.1-7.4 1.8-11.2l1.1-7 26.3-.3 26.2-.2-.2-25.8-.3-25.7-21.8-.3-21.9-.2.6-2.8c.3-1.5 3.1-18.5 6.1-37.7 14.6-91.4 16.6-103.5 17.7-103.5.4 0 .8.2.8.5 0 .2 6.5 20.6 14.4 45.2 19.9 62 68.6 213 79.3 246.3l8.9 27.5h97.7l1.2-4c.7-2.2 13.7-42.7 29-90 15.2-47.3 37.7-117.2 50-155.3 12.2-38.1 22.5-69.6 22.9-69.9.3-.3.8-.4 1-.2.3.3 18 109.5 27.2 167.4.7 4.4 6.5 40.3 12.8 79.8 6.4 39.5 11.6 72.1 11.6 72.3 0 .2 21.8.4 48.5.4s48.5-.4 48.5-.9c0-.4-3.4-21.9-7.6-47.7-4.1-25.8-8.4-52.1-9.4-58.4-1-6.3-8.6-53.8-17-105.5-8.3-51.7-16-99.2-17-105.5-1-6.3-6.8-42.6-13-80.5-6.1-38-12.4-77.3-14-87.5-1.7-10.2-3.7-22.7-4.6-27.8l-1.6-9.2h-97.4l-13.8 42.7c-12.6 39.2-39.2 121.8-75.6 234.8-7.7 24.2-17.7 55.2-22.1 68.9-4.5 13.6-8.4 24.4-8.9 24-.4-.5-1.5-3.2-2.3-5.9-.9-2.8-12.3-38.5-25.5-79.5-54.8-170-79.7-247.6-85.5-265.7l-6.2-19.3h-97.5z"/></g></svg>
